<?xml version="1.0" encoding="UTF-8"?>
<svg xmlns="http://www.w3.org/2000/svg" width="24" height="24" viewBox="0 0 24 24">
  <defs>
    <linearGradient id="tile" x1="0" y1="0" x2="1" y2="1">
      <stop offset="0" stop-color="#f6f3ea"/>
      <stop offset="1" stop-color="#e8e1d0"/>
    </linearGradient>
  </defs>
  <rect x="2" y="2" width="20" height="20" rx="4" fill="url(#tile)" stroke="#6f6656" stroke-width="1"/>
  <path d="M6 7.5h12M6 12h12M6 16.5h8" stroke="#c2b8a1" stroke-width="1.2" stroke-linecap="round"/>
  <path d="M14.2 6.8a3.4 3.4 0 1 0 0 6.8a3.4 3.4 0 0 0 0-6.8Zm0 1.4a2 2 0 1 1 0 4a2 2 0 0 1 0-4Z" fill="#1f2d3d"/>
  <path d="M16.7 12.9l3.1 3.1" stroke="#1f2d3d" stroke-width="1.6" stroke-linecap="round"/>
  <path d="M8.4 9.2c0-2.2 1.8-4 4-4c1.3 0 2.6.7 3.3 1.8c-0.5-0.2-1-0.3-1.5-0.3c-2.6 0-4.8 2.1-4.8 4.8c0 0.2 0 0.4 0 0.5c-0.7-0.7-1-1.7-1-2.8Z" fill="#3d6f8f" opacity="0.55"/>
  <circle cx="7.8" cy="16.6" r="1.2" fill="#d55d2a" stroke="#8f3413" stroke-width="0.6"/>
</svg>
